<?xml version="1.0" encoding="UTF-8"?>
<svg id="Capa_2" data-name="Capa 2" xmlns="http://www.w3.org/2000/svg" viewBox="0 0 401.45 104.55">
  <defs>
    <style>
      .cls-1 {
        fill: #fff;
      }
    </style>
  </defs>
  <g id="Capa_1-2" data-name="Capa 1">
    <g>
      <g>
        <path class="cls-1" d="M86.42,58.71c-.03-.68-.02-1.36-.1-2.03l-.19-2.02-.32-2.01c-.5-2.66-1.24-5.27-2.24-7.78-1-2.5-2.27-4.9-3.77-7.12-2.98-4.48-6.95-8.22-11.38-11.12-2.22-1.46-4.56-2.7-6.98-3.73-2.43-1.03-4.92-1.88-7.49-2.44l-.07.3c4.98,1.47,9.64,3.93,13.78,6.96,2.07,1.53,3.99,3.24,5.72,5.11,1.72,1.88,3.26,3.92,4.58,6.08,4.25,6.97,5.92,15.27,5.14,23.27-2.85-.04-5.72-.18-8.57-.38-7.7-.56-15.45-1.55-22.83-3.8-1.57-.52-3.19-1.09-4.69-1.8-3.67-1.78-7.64-2.58-11.69-2.85.94-4.04,2.11-8.04,3.32-11.93,4.37-13.44,11.6-25.87,20.57-36.79-6.6,6.85-12.36,14.55-17,22.88-2.73,4.7-7.39,15.2-10.28,25.73-2.99,0-5.98.21-8.88.48-5.87.61-11.66,1.67-17.39,3.03-.03-.61-.04-1.21-.03-1.8.02-.59.07-1.21.1-1.82.03-1.22.24-2.42.38-3.63.4-2.4.95-4.78,1.76-7.08.79-2.31,1.79-4.55,2.96-6.71,1.16-2.16,2.53-4.22,4.02-6.17.75-.97,1.54-1.89,2.42-2.76l1.28-1.34c.43-.44.91-.83,1.37-1.24,1.81-1.69,3.86-3.1,5.95-4.47l1.63-.93c.27-.15.54-.32.82-.47l.84-.42c.56-.28,1.12-.58,1.69-.84l1.74-.75c2.34-.96,4.77-1.75,7.27-2.37,1.25-.31,2.51-.58,3.79-.78,1.28-.24,2.56-.38,3.87-.52v-.31c-2.61-.35-5.28-.36-7.94-.16-2.66.2-5.31.68-7.92,1.36-2.61.68-5.14,1.69-7.62,2.83l-1.81.96-.9.49c-.3.17-.58.36-.87.54l-1.73,1.11c-.58.37-1.1.82-1.66,1.23-.54.43-1.11.82-1.62,1.28l-1.54,1.38c-1.04.91-2,1.92-2.91,2.96-1.82,2.08-3.42,4.34-4.83,6.72-1.41,2.38-2.58,4.9-3.55,7.51-.94,2.62-1.6,5.33-2.07,8.08-.16,1.38-.38,2.76-.41,4.16-.03.7-.08,1.38-.1,2.09,0,.72.01,1.42.05,2.11.14,2.79.51,5.52,1.12,8.22.61,2.69,1.42,5.34,2.47,7.92.26.64.56,1.27.85,1.9.28.63.57,1.27.92,1.87l.99,1.83c.35.6.74,1.18,1.11,1.77.71,1.2,1.6,2.28,2.44,3.4.4.57.9,1.07,1.35,1.59l1.4,1.55c.5.49,1.01.96,1.52,1.43.52.47,1,.97,1.55,1.4l1.65,1.28c.55.42,1.09.87,1.69,1.22,4.62,3.12,9.85,5.29,15.25,6.46.67.18,1.36.26,2.04.38l2.04.32,2.06.18c.69.06,1.37.13,2.06.12,1.38.02,2.75.07,4.12-.04.69-.04,1.37-.06,2.06-.13l2.04-.25,1.02-.13,1.01-.19,2.02-.39c.67-.16,1.33-.34,1.99-.52.66-.18,1.33-.34,1.98-.58l1.95-.66c.65-.23,1.28-.52,1.91-.77,1.29-.49,2.5-1.16,3.74-1.77,2.43-1.32,4.72-2.87,6.83-4.64,1.05-.89,2.06-1.82,3.02-2.82.96-1,1.86-2.02,2.73-3.21,3.17-4.52,5.37-9.63,6.5-14.96.31-1.33.49-2.68.69-4.02l.18-2.03c.07-.67.05-1.36.08-2.03l.03-1.02-.03-1.02ZM79.54,75.05c-1.08,2.23-2.37,4.37-3.82,6.35-.7.91-1.55,1.83-2.42,2.68-.88.86-1.8,1.68-2.77,2.44-1.93,1.54-4.02,2.87-6.21,3.99-4.41,2.17-9.24,3.6-14.16,4.14l-1.85.2c-.62.05-1.24.05-1.85.08-1.24.09-2.47.01-3.7-.02-.62,0-1.23-.08-1.84-.14l-1.84-.19-1.82-.32c-.6-.12-1.22-.19-1.81-.36-4.78-1.12-9.32-3.1-13.31-5.89-.52-.31-.98-.72-1.46-1.09l-1.43-1.14c-.48-.38-.89-.83-1.34-1.23l-1.32-1.25-1.21-1.36c-.4-.46-.83-.89-1.17-1.39-.72-.98-1.49-1.92-2.11-2.97-.32-.52-.66-1.02-.97-1.55l-.86-1.61c-.3-.53-.55-1.09-.8-1.65-.24-.56-.52-1.11-.74-1.68-.91-2.27-1.61-4.63-2.15-7.03-.21-.97-.39-1.96-.53-2.95,2.4-.69,4.86-1.26,7.29-1.83,5.15-1.08,11.52-2.31,17.68-2.56-2.36,10.1-2.69,19.64,2.37,23.45,3.25,2.32,7.79,2.64,11.08.22,3.13-2.54,4.38-7.08,2.74-10.82-1.93-4.35-7.91-5.68-11.51-2.82-.53.37-.99.83-1.43,1.29-.32.35-.57.73-.91,1.04,0-.14-.01-.28-.02-.41,0-3.97.48-7.99,1.25-11.98,3.59.1,7,.62,9.94,1.81.62.26,1.84.77,2.46,1.02,1.97.8,4.35,1.46,6.42,2,9.64,2.23,19.48,2.97,29.35,3.15-.18,1.13-.41,2.26-.7,3.37-.63,2.41-1.43,4.79-2.53,7.02ZM33.41,69.69s.02.02.02.02c1.09-1.92,4.13-2.01,5.96-1.52,3.57.73,4.62,4.9,2.89,7.74-1.25,2.08-4.49,1.91-6.28.72-2-1.52-2.42-4.41-2.58-6.96Z"/>
        <path class="cls-1" d="M50.73,67.73c.84,1.65,1.33,3.4,1.48,5.17.55,5.44-2.87,10.61-7.88,12.68l.16.54c1.92-.34,3.74-1.27,5.23-2.57,4.66-3.85,5.48-11.54,1.48-16.13l-.47.32Z"/>
      </g>
      <g>
        <path class="cls-1" d="M363.45,42.66c-.31-2.38-2.49-4.05-4.87-3.74-2.38.31-4.05,2.49-3.74,4.87.24,1.8,1.54,3.19,3.19,3.63.75,4.04,1.11,8.16,1.06,12.29-.06,5.42-.85,10.84-2.32,16.08-1.5,5.23-3.64,10.32-6.43,15.04-2.77,4.74-6.13,9.14-9.99,13.09l.61.62c4.08-3.82,7.71-8.14,10.77-12.86,3.08-4.7,5.53-9.83,7.34-15.2,1.77-5.37,2.86-10.99,3.19-16.68.25-4.37.06-8.77-.54-13.13,1.22-.91,1.94-2.42,1.73-4.03Z"/>
        <path class="cls-1" d="M339.98,46.06c-2.19.12-4.72.26-6.95-.1-.48-2.19-2.54-3.69-4.8-3.4-2.38.31-4.06,2.5-3.75,4.88.31,2.38,2.5,4.06,4.88,3.75,1.33-.17,2.43-.95,3.1-2,2.71-.02,5.18-.68,7.82-1.33,3.11-.84,6.13-1.87,9.09-3.02-3.12.57-6.27.99-9.39,1.21Z"/>
        <path class="cls-1" d="M370.36,12.99c1.74-.75,2.85-2.57,2.6-4.54-.31-2.38-2.5-4.06-4.88-3.75-2.38.31-4.06,2.5-3.75,4.88.15,1.13.73,2.09,1.54,2.77-.85,7.23-3.3,14.19-5.77,21.05,3.96-6.45,7.93-13.12,10.28-20.4Z"/>
        <path class="cls-1" d="M380.85,21.35c.5.12,1.02.16,1.55.09,2.38-.31,4.06-2.5,3.75-4.88-.31-2.38-2.5-4.06-4.88-3.75-2.38.31-4.06,2.5-3.75,4.88,0,.06.03.11.04.16-2.87,6.74-7.13,12.95-12.53,17.94,6.18-3.67,11.53-8.67,15.82-14.44Z"/>
        <path class="cls-1" d="M326.98,33.34c.2-.03.38-.08.56-.13,5.82,3.66,12.51,5.67,19.19,7.01-5.31-3.23-11.25-6.25-16.1-10.16.13-.51.17-1.06.1-1.61-.31-2.38-2.5-4.06-4.88-3.75-2.38.31-4.06,2.5-3.75,4.88.31,2.38,2.5,4.06,4.88,3.75Z"/>
        <path class="cls-1" d="M336.68,19.44c3.12,6.55,8.8,11.92,14.13,16.52-3.76-5.14-7.22-10.82-9-16.92-.15-.54-.27-1.07-.38-1.6.49-.81.73-1.78.59-2.79-.31-2.38-2.5-4.06-4.88-3.75-2.38.31-4.06,2.5-3.75,4.88.24,1.83,1.59,3.24,3.28,3.65Z"/>
        <path class="cls-1" d="M389.91,23.12c-2.19,3.2-4.85,6.1-7.85,8.61-3.94,3.33-8.35,6.17-13.09,8.3,9.13-2.51,17.86-7.14,24.47-14.02.38.05.76.07,1.16.02,2.38-.31,4.06-2.5,3.75-4.88-.31-2.38-2.5-4.06-4.88-3.75-2.38.31-4.06,2.5-3.75,4.88.04.29.11.58.2.85Z"/>
        <path class="cls-1" d="M401.41,41.96c-.31-2.38-2.5-4.06-4.88-3.75-1.71.22-3.05,1.42-3.56,2.96-.99.49-2.03.92-3.11,1.31-6.63,2.19-13.84,2.74-20.82,2.4,8.22,1.97,17.02,3.11,25.31,1.02.9.73,2.07,1.11,3.31.95,2.38-.31,4.06-2.5,3.75-4.88Z"/>
        <path class="cls-1" d="M386.7,54.21c-1.15.15-2.12.74-2.8,1.57-5.76-1.07-11.33-3.69-16.51-6.28,4.84,3.66,9.88,7.26,15.55,9.45,0,.05,0,.1,0,.15.31,2.38,2.5,4.06,4.88,3.75,2.38-.31,4.06-2.5,3.75-4.88-.31-2.38-2.5-4.06-4.88-3.75Z"/>
        <path class="cls-1" d="M349.8,7.96c.03.32.06.64.1.95,1.02,8.16,2.96,16.14,4.93,24.09-.72-7.45-1.35-14.94-1.34-22.4,0-.7.02-1.41.05-2.11,1.96-.63,3.25-2.59,2.98-4.7-.31-2.38-2.5-4.06-4.88-3.75-2.38.31-4.06,2.5-3.75,4.88.17,1.3.9,2.37,1.91,3.04Z"/>
      </g>
      <g>
        <g>
          <path class="cls-1" d="M126.16,5.25h9.08c8.22,0,13.9,5.64,13.9,13v.08c0,7.36-5.68,13.08-13.9,13.08h-9.08V5.25ZM129.11,7.98v20.7h6.13c6.61,0,10.84-4.45,10.84-10.28v-.07c0-5.79-4.22-10.35-10.84-10.35h-6.13Z"/>
          <path class="cls-1" d="M154.71,12.09h2.88v5.04c1.42-3.21,4.22-5.49,7.88-5.38v3.1h-.22c-4.22,0-7.66,3.03-7.66,8.86v7.7h-2.88V12.09Z"/>
          <path class="cls-1" d="M166.43,27.48h3.44v3.92h-3.44v-3.92Z"/>
          <path class="cls-1" d="M187.61,5.25h18.91v2.69h-15.96v8.93h14.27v2.69h-14.27v9.16h16.14v2.69h-19.1V5.25Z"/>
          <path class="cls-1" d="M209.82,21.8v-.07c0-6.28,4.6-10.05,9.23-10.05,3.59,0,5.9,1.91,7.4,4.11V4.13h2.88v27.28h-2.88v-3.89c-1.61,2.32-3.81,4.3-7.4,4.3-4.63,0-9.23-3.66-9.23-10.02ZM226.56,21.76v-.07c0-4.45-3.4-7.44-6.99-7.44s-6.8,2.77-6.8,7.44v.07c0,4.6,3.1,7.47,6.8,7.47s6.99-3.03,6.99-7.47Z"/>
          <path class="cls-1" d="M233.37,12.09h3.06l5.08,15.51,5.19-15.58h2.39l5.23,15.58,5.08-15.51h2.99l-6.8,19.47h-2.5l-5.19-15.25-5.23,15.25h-2.54l-6.76-19.47Z"/>
          <path class="cls-1" d="M266.41,4.69h3.29v3.18h-3.29v-3.18ZM266.59,12.09h2.88v19.32h-2.88V12.09Z"/>
          <path class="cls-1" d="M275.61,12.09h2.88v3.36c1.31-2.09,3.29-3.77,6.61-3.77,4.63,0,7.4,3.14,7.4,7.74v12h-2.88v-11.29c0-3.59-1.91-5.83-5.34-5.83s-5.79,2.43-5.79,6.05v11.06h-2.88V12.09Z"/>
          <path class="cls-1" d="M108.51,50.08h4.9l7.96,12.37,7.96-12.37h4.9v26.16h-4.6v-18.76l-8.26,12.33h-.15l-8.18-12.26v18.68h-4.52v-26.16Z"/>
          <path class="cls-1" d="M139.09,70.56v-.07c0-4.3,3.36-6.35,8.18-6.35,2.24,0,3.77.34,5.31.82v-.49c0-2.84-1.72-4.3-4.9-4.3-2.24,0-3.85.49-5.64,1.23l-1.23-3.55c2.21-.93,4.33-1.61,7.47-1.61,2.95,0,5.12.75,6.54,2.2,1.46,1.46,2.13,3.51,2.13,6.09v11.7h-4.41v-2.47c-1.35,1.61-3.4,2.88-6.43,2.88-3.7,0-7.03-2.09-7.03-6.09ZM152.66,69.14v-1.34c-1.16-.45-2.69-.78-4.48-.78-2.95,0-4.63,1.2-4.63,3.29v.07c0,1.91,1.64,2.99,3.85,2.99,2.99,0,5.27-1.68,5.27-4.22Z"/>
          <path class="cls-1" d="M162.33,48.96h4.56v27.28h-4.56v-27.28Z"/>
          <path class="cls-1" d="M171.46,66.41v-.08c0-6.58,4.45-10.24,9.16-10.24,3.21,0,5.34,1.61,6.73,3.47v-10.61h4.52v27.28h-4.52v-3.29c-1.46,2.05-3.55,3.7-6.73,3.7-4.63,0-9.16-3.66-9.16-10.24ZM187.41,66.41v-.08c0-3.81-2.69-6.31-5.72-6.31s-5.68,2.43-5.68,6.31v.08c0,3.81,2.58,6.32,5.68,6.32s5.72-2.54,5.72-6.32Z"/>
          <path class="cls-1" d="M196.17,66.49v-.08c0-5.64,4.48-10.31,10.54-10.31s10.5,4.6,10.5,10.24v.08c0,5.57-4.48,10.28-10.58,10.28s-10.46-4.6-10.46-10.2ZM212.69,66.49v-.08c0-3.48-2.5-6.35-6.05-6.35s-5.94,2.84-5.94,6.28v.08c0,3.44,2.54,6.32,6.02,6.32,3.7,0,5.98-2.84,5.98-6.24Z"/>
          <path class="cls-1" d="M221.5,56.51h4.56v3.03c1.31-1.83,3.06-3.44,6.17-3.44,4.48,0,7.03,2.95,7.03,7.55v12.59h-4.52v-11.21c0-3.1-1.53-4.82-4.22-4.82s-4.45,1.79-4.45,4.9v11.14h-4.56v-19.73Z"/>
          <path class="cls-1" d="M243.15,70.56v-.07c0-4.3,3.36-6.35,8.18-6.35,2.24,0,3.77.34,5.31.82v-.49c0-2.84-1.72-4.3-4.9-4.3-2.24,0-3.85.49-5.64,1.23l-1.23-3.55c2.2-.93,4.33-1.61,7.47-1.61,2.95,0,5.12.75,6.54,2.2,1.46,1.46,2.13,3.51,2.13,6.09v11.7h-4.41v-2.47c-1.35,1.61-3.4,2.88-6.43,2.88-3.7,0-7.03-2.09-7.03-6.09ZM256.72,69.14v-1.34c-1.16-.45-2.69-.78-4.48-.78-2.95,0-4.63,1.2-4.63,3.29v.07c0,1.91,1.64,2.99,3.85,2.99,2.99,0,5.27-1.68,5.27-4.22Z"/>
          <path class="cls-1" d="M265.22,66.41v-.08c0-6.58,4.45-10.24,9.16-10.24,3.21,0,5.34,1.61,6.73,3.47v-10.61h4.52v27.28h-4.52v-3.29c-1.46,2.05-3.55,3.7-6.73,3.7-4.63,0-9.16-3.66-9.16-10.24ZM281.17,66.41v-.08c0-3.81-2.69-6.31-5.72-6.31s-5.68,2.43-5.68,6.31v.08c0,3.81,2.58,6.32,5.68,6.32s5.72-2.54,5.72-6.32Z"/>
          <path class="cls-1" d="M289.93,66.49v-.08c0-5.64,4.48-10.31,10.54-10.31s10.5,4.6,10.5,10.24v.08c0,5.57-4.48,10.28-10.58,10.28s-10.46-4.6-10.46-10.2ZM306.44,66.49v-.08c0-3.48-2.5-6.35-6.05-6.35s-5.94,2.84-5.94,6.28v.08c0,3.44,2.54,6.32,6.02,6.32,3.7,0,5.98-2.84,5.98-6.24Z"/>
        </g>
        <g>
          <path class="cls-1" d="M109.03,95.18h1.73c2.34,0,3.74,1.58,3.74,3.55s-1.39,3.54-3.74,3.54h-1.73v-7.08ZM110.76,101.31c1.64,0,2.65-1.11,2.65-2.59s-1.01-2.61-2.65-2.61h-.73v5.2h.73Z"/>
          <path class="cls-1" d="M118.86,96.18v2h2.15v1h-2.15v2.08h3.86v1h-4.87v-7.08h4.87v1h-3.86Z"/>
          <path class="cls-1" d="M126.06,95.18h2.48c1.67,0,2.67,1.01,2.67,2.27,0,.92-.54,1.7-1.49,2.06l1.49,2.76h-1.02l-1.38-2.55-.39.02h-1.35v2.53h-1v-7.08ZM128.54,98.78c1.01,0,1.65-.57,1.65-1.33s-.63-1.33-1.65-1.33h-1.48v2.66h1.48Z"/>
          <path class="cls-1" d="M141.55,102.26l-1.14-5.24-1.69,5.24h-.59l-1.69-5.24-1.13,5.24h-1l1.52-7.08h.89l1.71,4.98,1.71-4.98h.9l1.52,7.08h-1Z"/>
          <path class="cls-1" d="M150.48,100.28h-3.08l-.79,1.98h-1.06l2.91-7.08h.95l2.91,7.08h-1.06l-.79-1.98ZM150.09,99.27l-1.15-2.89-1.15,2.89h2.3Z"/>
          <path class="cls-1" d="M159.87,96.18h-2.31v6.08h-1v-6.08h-2.3v-1h5.62v1Z"/>
          <path class="cls-1" d="M169.06,98.63c0,2.45-1.49,3.75-3.3,3.75s-3.2-1.46-3.2-3.61c0-2.26,1.4-3.74,3.31-3.74s3.2,1.49,3.2,3.6ZM163.54,98.75c0,1.52.82,2.88,2.27,2.88s2.28-1.34,2.28-2.96c0-1.41-.74-2.89-2.27-2.89s-2.28,1.4-2.28,2.97ZM167.35,93.51l-1.34,1.22h-.76l.98-1.22h1.12Z"/>
          <path class="cls-1" d="M176.41,101.26v1h-4.07v-7.08h1v6.08h3.06Z"/>
          <path class="cls-1" d="M179.24,98.73c0-2.01,1.28-3.63,3.45-3.63s3.44,1.63,3.44,3.63-1.28,3.62-3.44,3.62-3.45-1.63-3.45-3.62ZM185.07,98.73c0-1.53-.93-2.68-2.38-2.68s-2.38,1.15-2.38,2.68.92,2.68,2.38,2.68,2.38-1.15,2.38-2.68Z"/>
          <path class="cls-1" d="M189.23,98.73c0-2.01,1.3-3.63,3.46-3.63,1.38,0,2.4.67,2.96,1.67l-.92.57c-.4-.77-1.14-1.29-2.04-1.29-1.46,0-2.37,1.15-2.37,2.68s.91,2.68,2.37,2.68c1.19,0,2.05-.89,2.26-2.05h-2.1v-.89h3.16v3.79h-.88v-1.1c-.52.71-1.35,1.18-2.44,1.18-2.17,0-3.46-1.63-3.46-3.62Z"/>
          <path class="cls-1" d="M199.27,98.73c0-2.01,1.28-3.63,3.45-3.63s3.44,1.63,3.44,3.63-1.28,3.62-3.44,3.62-3.45-1.63-3.45-3.62ZM205.1,98.73c0-1.53-.93-2.68-2.38-2.68s-2.38,1.15-2.38,2.68.92,2.68,2.38,2.68,2.38-1.15,2.38-2.68Z"/>
          <path class="cls-1" d="M213.93,97.89h1.77v1.65h-1.77v-1.65Z"/>
          <path class="cls-1" d="M228.77,100.28h-3.08l-.79,1.98h-1.06l2.91-7.08h.95l2.91,7.08h-1.06l-.79-1.98ZM228.38,99.27l-1.15-2.89-1.15,2.89h2.3Z"/>
          <path class="cls-1" d="M237.83,101.26v1h-4.07v-7.08h1v6.08h3.06Z"/>
          <path class="cls-1" d="M242.15,96.18v2h2.15v1h-2.15v2.08h3.86v1h-4.87v-7.08h4.87v1h-3.86Z"/>
          <path class="cls-1" d="M249.35,95.18h2.48c1.67,0,2.67,1.01,2.67,2.27,0,.92-.54,1.7-1.49,2.06l1.49,2.76h-1.02l-1.38-2.55-.39.02h-1.35v2.53h-1v-7.08ZM251.83,98.78c1.01,0,1.65-.57,1.65-1.33s-.63-1.33-1.65-1.33h-1.48v2.66h1.48Z"/>
          <path class="cls-1" d="M257.62,98.73c0-2.01,1.3-3.63,3.46-3.63,1.38,0,2.4.67,2.96,1.67l-.92.57c-.4-.77-1.14-1.29-2.04-1.29-1.46,0-2.37,1.15-2.37,2.68s.91,2.68,2.37,2.68c1.19,0,2.05-.89,2.26-2.05h-2.1v-.89h3.16v3.79h-.88v-1.1c-.52.71-1.35,1.18-2.44,1.18-2.16,0-3.46-1.63-3.46-3.62Z"/>
          <path class="cls-1" d="M274.13,98.63c0,2.45-1.49,3.75-3.31,3.75s-3.2-1.46-3.2-3.61c0-2.26,1.4-3.74,3.31-3.74s3.2,1.49,3.2,3.6ZM268.61,98.75c0,1.52.82,2.88,2.27,2.88s2.28-1.34,2.28-2.96c0-1.41-.74-2.89-2.27-2.89s-2.28,1.4-2.28,2.97ZM272.42,93.51l-1.34,1.22h-.76l.98-1.22h1.12Z"/>
          <path class="cls-1" d="M281.48,101.26v1h-4.07v-7.08h1v6.08h3.06Z"/>
          <path class="cls-1" d="M284.31,98.73c0-2.01,1.28-3.63,3.45-3.63s3.44,1.63,3.44,3.63-1.28,3.62-3.44,3.62-3.45-1.63-3.45-3.62ZM290.13,98.73c0-1.53-.93-2.68-2.38-2.68s-2.38,1.15-2.38,2.68.92,2.68,2.38,2.68,2.38-1.15,2.38-2.68Z"/>
          <path class="cls-1" d="M294.3,98.73c0-2.01,1.3-3.63,3.46-3.63,1.38,0,2.4.67,2.96,1.67l-.92.57c-.4-.77-1.14-1.29-2.04-1.29-1.46,0-2.37,1.15-2.37,2.68s.91,2.68,2.37,2.68c1.19,0,2.05-.89,2.26-2.05h-2.1v-.89h3.16v3.79h-.88v-1.1c-.52.71-1.35,1.18-2.44,1.18-2.16,0-3.46-1.63-3.46-3.62Z"/>
          <path class="cls-1" d="M304.34,98.73c0-2.01,1.28-3.63,3.45-3.63s3.44,1.63,3.44,3.63-1.28,3.62-3.44,3.62-3.45-1.63-3.45-3.62ZM310.17,98.73c0-1.53-.93-2.68-2.38-2.68s-2.38,1.15-2.38,2.68.92,2.68,2.38,2.68,2.38-1.15,2.38-2.68Z"/>
        </g>
      </g>
    </g>
  </g>
</svg>